{
 "cells": [
  {
   "cell_type": "code",
   "execution_count": 176,
   "metadata": {
    "collapsed": true
   },
   "outputs": [],
   "source": [
    "####\n",
    "# Filename:        genVideo.ipynb\n",
    "# Date:            Jan 02 2017\n",
    "# Last Edited by:  Gengshan Yang\n",
    "# Description:     Generate videos of detection, tracking and pose estimation\n",
    "#                  results. \n",
    "####\n",
    "\n",
    "import os\n",
    "import subprocess\n",
    "\n",
    "def mvRes(imgPath, imgList, subDirName):\n",
    "    \"\"\" move specified image results to given subfolder \"\"\"\n",
    "    dirName = os.path.join(imgPath, subDirName) \n",
    "    if os.path.exists(dirName):\n",
    "        return\n",
    "    else:\n",
    "        os.makedirs(dirName)\n",
    "        \n",
    "    imgList = sorted(imgList)\n",
    "    for it, name  in enumerate(imgList):\n",
    "        a = os.path.join(imgPath, name)\n",
    "        b = os.path.join(dirName, str(it).zfill(5) + \".jpg\")\n",
    "        os.rename(a, b)\n",
    "        \n",
    "def runFFMPEG(tbFilled):\n",
    "    \"\"\" concat specified frames to a video, and clean subfloder \"\"\"\n",
    "    if os.path.exists('data/' + tbFilled + '.mp4'):\n",
    "        return\n",
    "    \n",
    "    cmd = 'ffmpeg -f image2 -r 5 -i data/' + tbFilled + '/%05d.jpg -vcodec mpeg4 -y data/' + tbFilled + '.mp4'\n",
    "    a = subprocess.check_output(cmd, shell=True, stderr=subprocess.STDOUT)\n",
    "    print a\n",
    "    \n",
    "    \"\"\" remove image folder \"\"\"\n",
    "    cmd = 'rm -rf data/' + tbFilled\n",
    "    a = subprocess.check_output(cmd, shell=True, stderr=subprocess.STDOUT)\n",
    "    print a"
   ]
  },
  {
   "cell_type": "code",
   "execution_count": 177,
   "metadata": {
    "collapsed": true
   },
   "outputs": [],
   "source": [
    "imgPath = \"/data/gengshan/handProj/\"  # specify output frame path"
   ]
  },
  {
   "cell_type": "code",
   "execution_count": 178,
   "metadata": {
    "collapsed": false
   },
   "outputs": [],
   "source": [
    "\"\"\" get a list of image names \"\"\"\n",
    "imgList = os.listdir(imgPath)\n",
    "detList = [x for x in imgList if (\"det\" in x) ]\n",
    "trkList = [x for x in imgList if (\"trk\" in x) ]\n",
    "posList = [x for x in imgList if (\"pos\" in x) ]\n",
    "objPosList = {}\n",
    "objIDs = list(set([x.split('_')[1] for x in posList]))\n",
    "for ID in objIDs:\n",
    "    objPosList[ID] = [x for x in posList if x.split('_')[1] == ID]"
   ]
  },
  {
   "cell_type": "code",
   "execution_count": null,
   "metadata": {
    "collapsed": true
   },
   "outputs": [],
   "source": []
  },
  {
   "cell_type": "code",
   "execution_count": 179,
   "metadata": {
    "collapsed": false
   },
   "outputs": [],
   "source": [
    "mvRes(imgPath, detList, 'det')\n",
    "mvRes(imgPath, trkList, 'trk')\n",
    "for ID, val in objPosList.items():\n",
    "    mvRes(imgPath, val, 'pos_' + ID)"
   ]
  },
  {
   "cell_type": "code",
   "execution_count": 180,
   "metadata": {
    "collapsed": false
   },
   "outputs": [
    {
     "name": "stdout",
     "output_type": "stream",
     "text": [
      "ffmpeg version N-77182-gbd3409f Copyright (c) 2000-2015 the FFmpeg developers\n",
      "  built with gcc 4.8 (Ubuntu 4.8.4-2ubuntu1~14.04)\n",
      "  configuration: \n",
      "  libavutil      55. 10.100 / 55. 10.100\n",
      "  libavcodec     57. 17.100 / 57. 17.100\n",
      "  libavformat    57. 19.100 / 57. 19.100\n",
      "  libavdevice    57.  0.100 / 57.  0.100\n",
      "  libavfilter     6. 20.100 /  6. 20.100\n",
      "  libswscale      4.  0.100 /  4.  0.100\n",
      "  libswresample   2.  0.101 /  2.  0.101\n",
      "[mjpeg @ 0x2b129c0] Changing bps to 8\n",
      "Input #0, image2, from 'data/det/%05d.jpg':\n",
      "  Duration: 00:00:27.40, start: 0.000000, bitrate: N/A\n",
      "    Stream #0:0: Video: mjpeg, yuvj420p(pc, bt470bg/unknown/unknown), 640x480 [SAR 1:1 DAR 4:3], 5 fps, 5 tbr, 5 tbn, 5 tbc\n",
      "[swscaler @ 0x2b3c8c0] deprecated pixel format used, make sure you did set range correctly\n",
      "Output #0, mp4, to 'data/det.mp4':\n",
      "  Metadata:\n",
      "    encoder         : Lavf57.19.100\n",
      "    Stream #0:0: Video: mpeg4 ( [0][0][0] / 0x0020), yuv420p, 640x480 [SAR 1:1 DAR 4:3], q=2-31, 200 kb/s, 5 fps, 10240 tbn, 5 tbc\n",
      "    Metadata:\n",
      "      encoder         : Lavc57.17.100 mpeg4\n",
      "Stream mapping:\n",
      "  Stream #0:0 -> #0:0 (mjpeg (native) -> mpeg4 (native))\n",
      "Press [q] to stop, [?] for help\n",
      "frame=  137 fps= 70 q=9.2 Lsize=     914kB time=00:00:27.40 bitrate= 273.4kbits/s    \n",
      "video:913kB audio:0kB subtitle:0kB other streams:0kB global headers:0kB muxing overhead: 0.155433%\n",
      "\n",
      "\n",
      "ffmpeg version N-77182-gbd3409f Copyright (c) 2000-2015 the FFmpeg developers\n",
      "  built with gcc 4.8 (Ubuntu 4.8.4-2ubuntu1~14.04)\n",
      "  configuration: \n",
      "  libavutil      55. 10.100 / 55. 10.100\n",
      "  libavcodec     57. 17.100 / 57. 17.100\n",
      "  libavformat    57. 19.100 / 57. 19.100\n",
      "  libavdevice    57.  0.100 / 57.  0.100\n",
      "  libavfilter     6. 20.100 /  6. 20.100\n",
      "  libswscale      4.  0.100 /  4.  0.100\n",
      "  libswresample   2.  0.101 /  2.  0.101\n",
      "[mjpeg @ 0x2f519c0] Changing bps to 8\n",
      "Input #0, image2, from 'data/trk/%05d.jpg':\n",
      "  Duration: 00:00:27.40, start: 0.000000, bitrate: N/A\n",
      "    Stream #0:0: Video: mjpeg, yuvj420p(pc, bt470bg/unknown/unknown), 640x480 [SAR 1:1 DAR 4:3], 5 fps, 5 tbr, 5 tbn, 5 tbc\n",
      "[swscaler @ 0x2f7b1a0] deprecated pixel format used, make sure you did set range correctly\n",
      "Output #0, mp4, to 'data/trk.mp4':\n",
      "  Metadata:\n",
      "    encoder         : Lavf57.19.100\n",
      "    Stream #0:0: Video: mpeg4 ( [0][0][0] / 0x0020), yuv420p, 640x480 [SAR 1:1 DAR 4:3], q=2-31, 200 kb/s, 5 fps, 10240 tbn, 5 tbc\n",
      "    Metadata:\n",
      "      encoder         : Lavc57.17.100 mpeg4\n",
      "Stream mapping:\n",
      "  Stream #0:0 -> #0:0 (mjpeg (native) -> mpeg4 (native))\n",
      "Press [q] to stop, [?] for help\n",
      "frame=  137 fps= 53 q=5.9 Lsize=    1015kB time=00:00:27.40 bitrate= 303.6kbits/s    \n",
      "video:1014kB audio:0kB subtitle:0kB other streams:0kB global headers:0kB muxing overhead: 0.139945%\n",
      "\n",
      "\n",
      "ffmpeg version N-77182-gbd3409f Copyright (c) 2000-2015 the FFmpeg developers\n",
      "  built with gcc 4.8 (Ubuntu 4.8.4-2ubuntu1~14.04)\n",
      "  configuration: \n",
      "  libavutil      55. 10.100 / 55. 10.100\n",
      "  libavcodec     57. 17.100 / 57. 17.100\n",
      "  libavformat    57. 19.100 / 57. 19.100\n",
      "  libavdevice    57.  0.100 / 57.  0.100\n",
      "  libavfilter     6. 20.100 /  6. 20.100\n",
      "  libswscale      4.  0.100 /  4.  0.100\n",
      "  libswresample   2.  0.101 /  2.  0.101\n",
      "[mjpeg @ 0x1d769c0] Changing bps to 8\n",
      "Input #0, image2, from 'data/pos_9/%05d.jpg':\n",
      "  Duration: 00:00:04.00, start: 0.000000, bitrate: N/A\n",
      "    Stream #0:0: Video: mjpeg, yuvj420p(pc, bt470bg/unknown/unknown), 640x480 [SAR 1:1 DAR 4:3], 5 fps, 5 tbr, 5 tbn, 5 tbc\n",
      "[swscaler @ 0x1da0ba0] deprecated pixel format used, make sure you did set range correctly\n",
      "Output #0, mp4, to 'data/pos_9.mp4':\n",
      "  Metadata:\n",
      "    encoder         : Lavf57.19.100\n",
      "    Stream #0:0: Video: mpeg4 ( [0][0][0] / 0x0020), yuv420p, 640x480 [SAR 1:1 DAR 4:3], q=2-31, 200 kb/s, 5 fps, 10240 tbn, 5 tbc\n",
      "    Metadata:\n",
      "      encoder         : Lavc57.17.100 mpeg4\n",
      "Stream mapping:\n",
      "  Stream #0:0 -> #0:0 (mjpeg (native) -> mpeg4 (native))\n",
      "Press [q] to stop, [?] for help\n",
      "frame=   20 fps=0.0 q=3.4 Lsize=     250kB time=00:00:04.00 bitrate= 511.8kbits/s    \n",
      "video:249kB audio:0kB subtitle:0kB other streams:0kB global headers:0kB muxing overhead: 0.370686%\n",
      "\n",
      "\n",
      "ffmpeg version N-77182-gbd3409f Copyright (c) 2000-2015 the FFmpeg developers\n",
      "  built with gcc 4.8 (Ubuntu 4.8.4-2ubuntu1~14.04)\n",
      "  configuration: \n",
      "  libavutil      55. 10.100 / 55. 10.100\n",
      "  libavcodec     57. 17.100 / 57. 17.100\n",
      "  libavformat    57. 19.100 / 57. 19.100\n",
      "  libavdevice    57.  0.100 / 57.  0.100\n",
      "  libavfilter     6. 20.100 /  6. 20.100\n",
      "  libswscale      4.  0.100 /  4.  0.100\n",
      "  libswresample   2.  0.101 /  2.  0.101\n",
      "[mjpeg @ 0x23be9c0] Changing bps to 8\n",
      "Input #0, image2, from 'data/pos_0/%05d.jpg':\n",
      "  Duration: 00:00:27.40, start: 0.000000, bitrate: N/A\n",
      "    Stream #0:0: Video: mjpeg, yuvj420p(pc, bt470bg/unknown/unknown), 640x480 [SAR 1:1 DAR 4:3], 5 fps, 5 tbr, 5 tbn, 5 tbc\n",
      "[swscaler @ 0x23e8280] deprecated pixel format used, make sure you did set range correctly\n",
      "Output #0, mp4, to 'data/pos_0.mp4':\n",
      "  Metadata:\n",
      "    encoder         : Lavf57.19.100\n",
      "    Stream #0:0: Video: mpeg4 ( [0][0][0] / 0x0020), yuv420p, 640x480 [SAR 1:1 DAR 4:3], q=2-31, 200 kb/s, 5 fps, 10240 tbn, 5 tbc\n",
      "    Metadata:\n",
      "      encoder         : Lavc57.17.100 mpeg4\n",
      "Stream mapping:\n",
      "  Stream #0:0 -> #0:0 (mjpeg (native) -> mpeg4 (native))\n",
      "Press [q] to stop, [?] for help\n",
      "frame=  137 fps=0.0 q=5.9 Lsize=     991kB time=00:00:27.40 bitrate= 296.2kbits/s    \n",
      "video:989kB audio:0kB subtitle:0kB other streams:0kB global headers:0kB muxing overhead: 0.143442%\n",
      "\n",
      "\n",
      "ffmpeg version N-77182-gbd3409f Copyright (c) 2000-2015 the FFmpeg developers\n",
      "  built with gcc 4.8 (Ubuntu 4.8.4-2ubuntu1~14.04)\n",
      "  configuration: \n",
      "  libavutil      55. 10.100 / 55. 10.100\n",
      "  libavcodec     57. 17.100 / 57. 17.100\n",
      "  libavformat    57. 19.100 / 57. 19.100\n",
      "  libavdevice    57.  0.100 / 57.  0.100\n",
      "  libavfilter     6. 20.100 /  6. 20.100\n",
      "  libswscale      4.  0.100 /  4.  0.100\n",
      "  libswresample   2.  0.101 /  2.  0.101\n",
      "[mjpeg @ 0x37609c0] Changing bps to 8\n",
      "Input #0, image2, from 'data/pos_38/%05d.jpg':\n",
      "  Duration: 00:00:04.00, start: 0.000000, bitrate: N/A\n",
      "    Stream #0:0: Video: mjpeg, yuvj420p(pc, bt470bg/unknown/unknown), 640x480 [SAR 1:1 DAR 4:3], 5 fps, 5 tbr, 5 tbn, 5 tbc\n",
      "[swscaler @ 0x378aec0] deprecated pixel format used, make sure you did set range correctly\n",
      "Output #0, mp4, to 'data/pos_38.mp4':\n",
      "  Metadata:\n",
      "    encoder         : Lavf57.19.100\n",
      "    Stream #0:0: Video: mpeg4 ( [0][0][0] / 0x0020), yuv420p, 640x480 [SAR 1:1 DAR 4:3], q=2-31, 200 kb/s, 5 fps, 10240 tbn, 5 tbc\n",
      "    Metadata:\n",
      "      encoder         : Lavc57.17.100 mpeg4\n",
      "Stream mapping:\n",
      "  Stream #0:0 -> #0:0 (mjpeg (native) -> mpeg4 (native))\n",
      "Press [q] to stop, [?] for help\n",
      "frame=   20 fps=0.0 q=3.2 Lsize=     277kB time=00:00:04.00 bitrate= 567.2kbits/s    \n",
      "video:276kB audio:0kB subtitle:0kB other streams:0kB global headers:0kB muxing overhead: 0.334355%\n",
      "\n",
      "\n",
      "ffmpeg version N-77182-gbd3409f Copyright (c) 2000-2015 the FFmpeg developers\n",
      "  built with gcc 4.8 (Ubuntu 4.8.4-2ubuntu1~14.04)\n",
      "  configuration: \n",
      "  libavutil      55. 10.100 / 55. 10.100\n",
      "  libavcodec     57. 17.100 / 57. 17.100\n",
      "  libavformat    57. 19.100 / 57. 19.100\n",
      "  libavdevice    57.  0.100 / 57.  0.100\n",
      "  libavfilter     6. 20.100 /  6. 20.100\n",
      "  libswscale      4.  0.100 /  4.  0.100\n",
      "  libswresample   2.  0.101 /  2.  0.101\n",
      "[mjpeg @ 0x238c9c0] Changing bps to 8\n",
      "Input #0, image2, from 'data/pos_121/%05d.jpg':\n",
      "  Duration: 00:00:04.00, start: 0.000000, bitrate: N/A\n",
      "    Stream #0:0: Video: mjpeg, yuvj420p(pc, bt470bg/unknown/unknown), 640x480 [SAR 1:1 DAR 4:3], 5 fps, 5 tbr, 5 tbn, 5 tbc\n",
      "[swscaler @ 0x23b6740] deprecated pixel format used, make sure you did set range correctly\n",
      "Output #0, mp4, to 'data/pos_121.mp4':\n",
      "  Metadata:\n",
      "    encoder         : Lavf57.19.100\n",
      "    Stream #0:0: Video: mpeg4 ( [0][0][0] / 0x0020), yuv420p, 640x480 [SAR 1:1 DAR 4:3], q=2-31, 200 kb/s, 5 fps, 10240 tbn, 5 tbc\n",
      "    Metadata:\n",
      "      encoder         : Lavc57.17.100 mpeg4\n",
      "Stream mapping:\n",
      "  Stream #0:0 -> #0:0 (mjpeg (native) -> mpeg4 (native))\n",
      "Press [q] to stop, [?] for help\n",
      "frame=   20 fps=0.0 q=3.7 Lsize=     278kB time=00:00:04.00 bitrate= 569.6kbits/s    \n",
      "video:277kB audio:0kB subtitle:0kB other streams:0kB global headers:0kB muxing overhead: 0.332929%\n",
      "\n",
      "\n"
     ]
    }
   ],
   "source": [
    "runFFMPEG('det')\n",
    "runFFMPEG('trk')\n",
    "for ID, val in objPosList.items():\n",
    "    runFFMPEG('pos_' + ID)"
   ]
  },
  {
   "cell_type": "code",
   "execution_count": null,
   "metadata": {
    "collapsed": true
   },
   "outputs": [],
   "source": []
  }
 ],
 "metadata": {
  "kernelspec": {
   "display_name": "Python 2",
   "language": "python",
   "name": "python2"
  },
  "language_info": {
   "codemirror_mode": {
    "name": "ipython",
    "version": 2
   },
   "file_extension": ".py",
   "mimetype": "text/x-python",
   "name": "python",
   "nbconvert_exporter": "python",
   "pygments_lexer": "ipython2",
   "version": "2.7.6"
  }
 },
 "nbformat": 4,
 "nbformat_minor": 1
}
